<?xml version="1.0" encoding="utf-8"?>
<!-- Generator: Adobe Illustrator 26.3.1, SVG Export Plug-In . SVG Version: 6.00 Build 0)  -->
<svg version="1.1" id="Layer_1" xmlns="http://www.w3.org/2000/svg" xmlns:xlink="http://www.w3.org/1999/xlink" x="0px" y="0px"
	 viewBox="0 0 512 512" style="enable-background:new 0 0 512 512;" xml:space="preserve">
<style type="text/css">
	.st0{fill:none;stroke:#ED323F;stroke-width:11;stroke-linecap:round;stroke-linejoin:round;stroke-miterlimit:4.6667;}
</style>
<g>
	<path class="st0" d="M426.2,120c-17,8.3-33.7,11.7-51.1,16.8c-19.1-21.5-47.4-22.7-74.5-12.5s-45,35.1-44.6,63.6v17
		c-55.2,1.4-104.4-23.7-136.1-68.1c0,0-71.2,126.5,68.1,187.2c-31.9,21.2-63.6,35.5-102.1,34c56.3,30.7,117.6,41.2,170.8,25.8
		c60.9-17.7,111-63.4,130.2-131.8c5.7-20.8,8.6-42.3,8.5-63.9C395.2,184.1,420.9,141.1,426.2,120L426.2,120z"/>
</g>
</svg>
